# xmcd
#
# Track frame offsets:
#        150
#        14925
#        30387
#        51427
#        70495
#        86987
#        103650
#        135970
#        152247
#        169965
#        191755
#        205512
#
# Disc length: 3089 seconds
#
# Revision: 3
# Processed by: cddbd v1.5.1PL2 Copyright (c) Steve Scherf et al.
# Submitted via: ExactAudioCopy v0.95a5
#
DISCID=ac0c0f0c
DTITLE=Kipori Woods - Big Black Cadillac
DYEAR=2000
DGENRE=Electric Blues
TTITLE0=Don't Look Don't Touch
TTITLE1=I've Got A Big Black Cadillac
TTITLE2=Just Like Crabs In A Bucket
TTITLE3=You're Gonna Need Me
TTITLE4=Prissy Miss Lady
TTITLE5=I Had A Dream
TTITLE6=The Day I Started Playing The Blues
TTITLE7=I'm Having A Hard Time
TTITLE8=Only Believe
TTITLE9=Baby Let Your Family Know
TTITLE10=The Call Me The Baby Wolf
TTITLE11=I Love Me Some Women
EXTD=Out of New Orleans..................
EXTT0=
EXTT1=
EXTT2=
EXTT3=
EXTT4=
EXTT5=
EXTT6=
EXTT7=
EXTT8=
EXTT9=
EXTT10=
EXTT11=
PLAYORDER=
